<svg xmlns="http://www.w3.org/2000/svg" width="700" height="700" viewBox="0 0 700 700">
  <defs>
    <style>
      .a, .b {
        fill: #eeefed;
      }

      .b {
        stroke: #000;
        stroke-miterlimit: 10;
        stroke-width: 5px;
      }

      .c {
        fill: #e72b78;
      }

      .d {
        fill: #f9b443;
      }
    </style>
  </defs>
  <rect class="a" x="17.5" y="17.5" width="665" height="665" rx="48.7703"/>
  <polyline class="b" points="52.23 97.253 96.451 97.253 96.451 622.022 425.105 622.022 425.105 97.253 469.391 97.253"/>
  <polygon class="c" points="487.851 415.659 487.851 395.19 470.125 405.424 452.398 415.659 470.125 425.893 487.851 436.128 487.851 415.659"/>
  <rect class="d" x="111.3159" y="382.7783" width="298.9895" height="65.7609"/>
  <rect class="d" x="111.3159" y="538.7357" width="298.9895" height="65.7609"/>
  <g>
    <path d="M148.7432,416.2412l-.3477-2.4775a35.8549,35.8549,0,0,1,6.3682-.5948,5.497,5.497,0,0,1,3.6425,1.003,4.408,4.408,0,0,1,1.1651,3.4814v8.0781h-2.8994L156.3,423.873a5.698,5.698,0,0,1-4.51,2.1553,4.3393,4.3393,0,0,1-2.874-.9287,3.1856,3.1856,0,0,1-1.1152-2.5889v-1.2392a2.7929,2.7929,0,0,1,.9912-2.2793,4.1994,4.1994,0,0,1,2.751-.8184h4.36v-.5449a1.6059,1.6059,0,0,0-.4336-1.2637,2.7005,2.7005,0,0,0-1.5732-.3222Q151.8648,416.043,148.7432,416.2412Zm2.6757,5.3027v.4707q0,1.2642,1.4375,1.2637a5.0567,5.0567,0,0,0,3.0469-1.1894v-1.71h-3.2949A1.0544,1.0544,0,0,0,151.4189,421.5439Z"/>
    <path d="M172.48,422.832l.3223,2.3789a11.925,11.925,0,0,1-4.7325.8174q-3.37,0-4.7451-1.4492t-1.375-4.9678q0-3.5435,1.3877-4.9931t4.7822-1.4493a11.2474,11.2474,0,0,1,4.51.7676l-.3965,2.28q-2.6763-.05-3.4941-.05a2.9967,2.9967,0,0,0-2.3164.7187,6.1942,6.1942,0,0,0,0,5.4512,2.9966,2.9966,0,0,0,2.3164.7188A27.1251,27.1251,0,0,0,172.48,422.832Z"/>
    <path d="M179.7891,415.9688v5.7734a1.2721,1.2721,0,0,0,.2978.9658,1.5373,1.5373,0,0,0,1.041.2734h1.5606l.3965,2.5518a10.4794,10.4794,0,0,1-3.4444.4951,3.4591,3.4591,0,0,1-2.5771-.9287,3.5251,3.5251,0,0,1-.916-2.5889v-6.5419h-2.1563V413.64l2.1563-.124v-3.4189h3.6416v3.4189h3.3945v2.4532Z"/>
    <path d="M186.3057,408.1143h1.6357a.9419.9419,0,0,1,1.0654,1.0654v1.3379a.9419.9419,0,0,1-1.0654,1.0654h-1.6357a.942.942,0,0,1-1.0655-1.0654V409.18A.942.942,0,0,1,186.3057,408.1143Zm2.6513,17.6171h-3.6425V413.5156h3.6425Z"/>
    <path d="M204.2949,413.5156l-4.0137,11.3487a1.1619,1.1619,0,0,1-1.1894.8671H195.92a1.1619,1.1619,0,0,1-1.1894-.8671l-4.0137-11.3487h3.89l2.2051,7.6563q.2725,1.0165.52,2.1806h.3223l.57-2.1806,2.2051-7.6563Z"/>
    <path d="M213.5625,420.8506h-4.4111a2.5349,2.5349,0,0,0,.8056,1.7959,3.6541,3.6541,0,0,0,2.0938.458,44.1976,44.1976,0,0,0,4.56-.2725l.3466,2.28a12.5553,12.5553,0,0,1-5.3271.916q-3.4453,0-4.9063-1.4863t-1.4619-4.9063q0-3.5917,1.4248-5.03,1.4238-1.4357,4.7949-1.4366a7.2767,7.2767,0,0,1,4.41,1.0528,3.8625,3.8625,0,0,1,1.3877,3.209,3.424,3.424,0,0,1-.88,2.5644A3.9634,3.9634,0,0,1,213.5625,420.8506Zm-4.4854-2.2061h3.47a1.0612,1.0612,0,0,0,.9043-.3222,1.5867,1.5867,0,0,0,.2353-.9414,1.4116,1.4116,0,0,0-.4463-1.2012,2.8665,2.8665,0,0,0-1.6357-.335,2.6087,2.6087,0,0,0-1.9326.5576A3.6744,3.6744,0,0,0,209.0771,418.6445Z"/>
    <path d="M230.46,421.1973l-3.0469-.8184a4.3772,4.3772,0,0,1-2.3291-1.35,3.8494,3.8494,0,0,1-.6445-2.3672,3.0134,3.0134,0,0,1,1.1767-2.7,7.5449,7.5449,0,0,1,4.0264-.793,35.74,35.74,0,0,1,5.6494.4707l-.2481,2.3536q-3.1215-.0485-4.707-.0489-.8687,0-1.2021.0118a3.73,3.73,0,0,0-.669.0869c-.2226.05-.3594.1279-.4092.2353a1.22,1.22,0,0,0-.0742.4834,1.6918,1.6918,0,0,0,.0127.2227.4833.4833,0,0,0,.0615.1865,1.4625,1.4625,0,0,0,.087.1357.4972.4972,0,0,0,.1367.1114.9775.9775,0,0,0,.1611.0869c.041.0166.1152.0459.2227.0869s.1894.07.248.0869.165.0459.3213.0869.2773.07.3594.086l3.122.8427a4.8827,4.8827,0,0,1,2.3291,1.251,3.3912,3.3912,0,0,1,.6944,2.3174,3.2016,3.2016,0,0,1-1.2637,2.9609,8.7516,8.7516,0,0,1-4.3359.78,33.1321,33.1321,0,0,1-5.4766-.4209l.2236-2.3789q.8907.05,4.2364.05a11.7939,11.7939,0,0,0,2.49-.1611.7179.7179,0,0,0,.583-.7559,1.8806,1.8806,0,0,0-.0127-.2226.5088.5088,0,0,0-.0625-.1866.6515.6515,0,0,0-.0986-.1357.7439.7439,0,0,0-.1611-.1113c-.0743-.042-.1329-.0752-.1739-.1a1.49,1.49,0,0,0-.2353-.0987c-.1153-.042-.2061-.07-.2725-.0869s-.1816-.0459-.3467-.0869A3.0617,3.0617,0,0,1,230.46,421.1973Z"/>
    <path d="M249.6885,413.5156v12.2158H246.79l-.2724-1.6845a8.13,8.13,0,0,1-5.0557,2.0068q-3.4439,0-3.4433-3.3945v-9.1436h3.6669v8.0283a1.5642,1.5642,0,0,0,.2725,1.1153,1.3759,1.3759,0,0,0,1.041.3222,7.4859,7.4859,0,0,0,3.0479-1.0166v-8.4492Z"/>
    <path d="M256.3545,408.3867v3.89a10.9843,10.9843,0,0,1-.3223,2.875,5.9275,5.9275,0,0,1,4.336-1.9825,3.9241,3.9241,0,0,1,3.4316,1.4747q1.0533,1.4736,1.0537,4.8681a7.83,7.83,0,0,1-1.289,4.8321q-1.2891,1.686-4.6827,1.6845a25.2838,25.2838,0,0,1-3.333-.2471,11.4042,11.4042,0,0,1-2.8867-.6943v-16.7Zm-.0254,8.7471V423.08a9.7756,9.7756,0,0,0,2.4785.2226,2.0412,2.0412,0,0,0,1.7715-.8418,5.8829,5.8829,0,0,0,.5078-2.9238,5.9907,5.9907,0,0,0-.4209-2.7383,1.8914,1.8914,0,0,0-1.76-.706A5.0406,5.0406,0,0,0,256.3291,417.1338Z"/>
    <path d="M276.1514,413.1689l-.3721,3.3946h-.9912a13.3572,13.3572,0,0,0-3.7412.8427v8.3252H267.38V413.5156h2.85l.3223,1.7842a7.6994,7.6994,0,0,1,4.955-2.1309Z"/>
    <path d="M283.5107,413.1689q3.419,0,4.8438,1.4747t1.4248,4.9921q0,3.5186-1.4248,4.9688-1.4253,1.4487-4.8438,1.4492-3.4452,0-4.8691-1.4492t-1.4248-4.9688q0-3.5435,1.4248-5.0048T283.5107,413.1689Zm0,2.75a2.1991,2.1991,0,0,0-1.958.7432,5.98,5.98,0,0,0-.4951,2.9736,5.8326,5.8326,0,0,0,.4951,2.9239,2.1965,2.1965,0,0,0,1.958.7431,2.1692,2.1692,0,0,0,1.92-.7431,5.703,5.703,0,0,0,.5078-2.9239,5.9852,5.9852,0,0,0-.4951-2.9609A2.1507,2.1507,0,0,0,283.5107,415.9189Z"/>
    <path d="M303.8779,413.5156v12.2158H300.98l-.2725-1.6845a8.1294,8.1294,0,0,1-5.0556,2.0068q-3.4439,0-3.4434-3.3945v-9.1436h3.667v8.0283a1.5637,1.5637,0,0,0,.2725,1.1153,1.3759,1.3759,0,0,0,1.041.3222,7.4855,7.4855,0,0,0,3.0478-1.0166v-8.4492Z"/>
    <path d="M311.6582,415.9688v5.7734a1.2717,1.2717,0,0,0,.2979.9658,1.5371,1.5371,0,0,0,1.041.2734h1.56l.3965,2.5518a10.4788,10.4788,0,0,1-3.4443.4951,3.4591,3.4591,0,0,1-2.5772-.9287,3.5255,3.5255,0,0,1-.916-2.5889v-6.5419H305.86V413.64l2.1562-.124v-3.4189h3.6416v3.4189h3.3945v2.4532Z"/>
    <path d="M318.1748,408.1143h1.6357a.942.942,0,0,1,1.0655,1.0654v1.3379a.942.942,0,0,1-1.0655,1.0654h-1.6357a.9419.9419,0,0,1-1.0654-1.0654V409.18A.9419.9419,0,0,1,318.1748,408.1143Zm2.6514,17.6171h-3.6426V413.5156h3.6426Z"/>
    <path d="M326.8975,413.5156l.2724,1.8086a8.3372,8.3372,0,0,1,5.2276-2.1553,3.47,3.47,0,0,1,2.54.8672,3.3978,3.3978,0,0,1,.88,2.5274v9.1679h-3.6426v-8.0283a1.8065,1.8065,0,0,0-.26-1.1269,1.1631,1.1631,0,0,0-.93-.3106,8.5637,8.5637,0,0,0-3.3946,1.1153v8.3505h-3.667V413.5156Z"/>
    <path d="M346.5459,420.8506h-4.4111a2.5349,2.5349,0,0,0,.8056,1.7959,3.6541,3.6541,0,0,0,2.0938.458,44.1976,44.1976,0,0,0,4.56-.2725l.3466,2.28a12.5553,12.5553,0,0,1-5.3271.916q-3.4453,0-4.9063-1.4863t-1.4619-4.9063q0-3.5917,1.4248-5.03,1.4238-1.4357,4.7949-1.4366a7.2767,7.2767,0,0,1,4.41,1.0528,3.8625,3.8625,0,0,1,1.3877,3.209,3.424,3.424,0,0,1-.88,2.5644A3.9634,3.9634,0,0,1,346.5459,420.8506Zm-4.4854-2.2061h3.47a1.0612,1.0612,0,0,0,.9043-.3222,1.5867,1.5867,0,0,0,.2353-.9414,1.4116,1.4116,0,0,0-.4463-1.2012,2.8665,2.8665,0,0,0-1.6357-.335,2.6087,2.6087,0,0,0-1.9326.5576A3.6744,3.6744,0,0,0,342.0605,418.6445Z"/>
    <path d="M358.0186,411.4834l-.1739-2.7256a33.6185,33.6185,0,0,1,5.377-.4453,7.9469,7.9469,0,0,1,4.3115.8672,3.49,3.49,0,0,1,1.2637,3.0967,6.4534,6.4534,0,0,1-.57,2.999,2.6354,2.6354,0,0,1-2.0313,1.3125v.1a3.2784,3.2784,0,0,1,2.3418,1.3008,5.5466,5.5466,0,0,1,.7061,2.9853,4.8475,4.8475,0,0,1-1.2891,3.8907q-1.3374,1.1893-4.5586,1.1894a45.028,45.028,0,0,1-5.873-.4463l.1494-2.8242q2.7744.1728,4.707.1729a4.3248,4.3248,0,0,0,2.4785-.5079,2.3631,2.3631,0,0,0,.669-1.97,2.5456,2.5456,0,0,0-.545-1.8213,2.8608,2.8608,0,0,0-2.082-.5332h-3.1963v-2.5761h3.1963q1.4868,0,1.9209-.5577a2.7043,2.7043,0,0,0,.4082-1.7226q0-1.2129-.52-1.5479a4.4528,4.4528,0,0,0-2.1309-.3349Q360.4458,411.3848,358.0186,411.4834Z"/>
  </g>
  <rect class="d" x="111.3159" y="460.757" width="298.9895" height="65.7609"/>
  <g>
    <path d="M148.4121,494.2461l-.3476-2.4775a35.8538,35.8538,0,0,1,6.3681-.5948,5.4973,5.4973,0,0,1,3.6426,1.003,4.4079,4.4079,0,0,1,1.165,3.4814v8.0781h-2.8994l-.372-1.8584a5.698,5.698,0,0,1-4.51,2.1553,4.34,4.34,0,0,1-2.874-.9287,3.1854,3.1854,0,0,1-1.1153-2.5889v-1.2392a2.7932,2.7932,0,0,1,.9912-2.2793,4.2,4.2,0,0,1,2.751-.8184h4.36v-.5449a1.6063,1.6063,0,0,0-.4336-1.2637,2.7011,2.7011,0,0,0-1.5733-.3222Q151.5337,494.0479,148.4121,494.2461Zm2.6758,5.3027v.4707q0,1.2642,1.4375,1.2637a5.0571,5.0571,0,0,0,3.0469-1.1894v-1.71h-3.295A1.0544,1.0544,0,0,0,151.0879,499.5488Z"/>
    <path d="M172.1484,500.8369l.3223,2.3789a11.9266,11.9266,0,0,1-4.7324.8174q-3.3707,0-4.7451-1.4492t-1.375-4.9678q0-3.5435,1.3877-4.9932t4.7822-1.4492a11.248,11.248,0,0,1,4.51.7676l-.3965,2.28q-2.6763-.05-3.4942-.05a2.9968,2.9968,0,0,0-2.3164.7187,6.1951,6.1951,0,0,0,0,5.4512,2.9968,2.9968,0,0,0,2.3164.7187A27.1266,27.1266,0,0,0,172.1484,500.8369Z"/>
    <path d="M179.458,493.9736v5.7735a1.2717,1.2717,0,0,0,.2979.9658,1.5371,1.5371,0,0,0,1.041.2734h1.5605l.3965,2.5518a10.4788,10.4788,0,0,1-3.4443.4951,3.46,3.46,0,0,1-2.5772-.9287,3.5255,3.5255,0,0,1-.916-2.5889v-6.542H173.66v-2.3291l2.1562-.124v-3.4189h3.6416v3.4189h3.3945v2.4531Z"/>
    <path d="M185.9746,486.1191H187.61a.942.942,0,0,1,1.0654,1.0655v1.3379a.942.942,0,0,1-1.0654,1.0654h-1.6358a.9419.9419,0,0,1-1.0654-1.0654v-1.3379A.942.942,0,0,1,185.9746,486.1191Zm2.6514,17.6172h-3.6426V491.5205h3.6426Z"/>
    <path d="M203.9639,491.5205,199.95,502.8691a1.1619,1.1619,0,0,1-1.1895.8672h-3.1718a1.162,1.162,0,0,1-1.1895-.8672l-4.0137-11.3486h3.89l2.2051,7.6563q.2724,1.0165.52,2.1806h.3222l.57-2.1806,2.205-7.6563Z"/>
    <path d="M213.2314,498.8555H208.82a2.5349,2.5349,0,0,0,.8057,1.7959,3.6537,3.6537,0,0,0,2.0937.458,44.1976,44.1976,0,0,0,4.56-.2725l.3467,2.28a12.5561,12.5561,0,0,1-5.3272.916q-3.4452,0-4.9062-1.4863t-1.4619-4.9063q0-3.5917,1.4248-5.03,1.4238-1.4357,4.7949-1.4366a7.2763,7.2763,0,0,1,4.41,1.0528,3.862,3.862,0,0,1,1.3877,3.2089,3.4245,3.4245,0,0,1-.88,2.5645A3.9638,3.9638,0,0,1,213.2314,498.8555Zm-4.4853-2.2061h3.47a1.0608,1.0608,0,0,0,.9043-.3223,1.5855,1.5855,0,0,0,.2354-.9414,1.4118,1.4118,0,0,0-.4463-1.2011,2.8663,2.8663,0,0,0-1.6358-.335,2.6089,2.6089,0,0,0-1.9326.5576A3.6739,3.6739,0,0,0,208.7461,496.6494Z"/>
    <path d="M230.1289,499.2021l-3.0469-.8183a4.3772,4.3772,0,0,1-2.3291-1.35,3.85,3.85,0,0,1-.6445-2.3672,3.0132,3.0132,0,0,1,1.1768-2.7,7.5442,7.5442,0,0,1,4.0263-.793,35.7391,35.7391,0,0,1,5.6494.4707l-.248,2.3535q-3.1216-.0483-4.707-.0488-.8687,0-1.2022.0117a3.7288,3.7288,0,0,0-.6689.087q-.3341.0747-.4092.2353a1.22,1.22,0,0,0-.0742.4834,1.6918,1.6918,0,0,0,.0127.2227.4833.4833,0,0,0,.0615.1865,1.4861,1.4861,0,0,0,.0869.1357.499.499,0,0,0,.1367.1114.9855.9855,0,0,0,.1612.0869c.041.0166.1152.0459.2226.0869s.19.07.2481.0869.165.0459.3212.0869.2774.07.3594.0859l3.1221.8428a4.8832,4.8832,0,0,1,2.3291,1.251,3.3912,3.3912,0,0,1,.6943,2.3174,3.2017,3.2017,0,0,1-1.2636,2.9609,8.7518,8.7518,0,0,1-4.336.78,33.1309,33.1309,0,0,1-5.4765-.4209l.2236-2.3789q.8906.05,4.2363.05a11.7926,11.7926,0,0,0,2.49-.1611.7181.7181,0,0,0,.5831-.7559,1.8837,1.8837,0,0,0-.0127-.2227.5083.5083,0,0,0-.0625-.1865.6516.6516,0,0,0-.0987-.1357.7472.7472,0,0,0-.1611-.1114c-.0742-.0419-.1328-.0751-.1738-.1a1.5045,1.5045,0,0,0-.2354-.0986,2.8523,2.8523,0,0,0-.2724-.0869c-.0665-.0166-.1817-.0459-.3467-.0869A3.0374,3.0374,0,0,1,230.1289,499.2021Z"/>
    <path d="M249.3574,491.5205v12.2158H246.459l-.2725-1.6845a8.13,8.13,0,0,1-5.0556,2.0068q-3.4438,0-3.4434-3.3945v-9.1436h3.667v8.0283a1.5637,1.5637,0,0,0,.2725,1.1153,1.3759,1.3759,0,0,0,1.041.3222,7.4855,7.4855,0,0,0,3.0478-1.0166v-8.4492Z"/>
    <path d="M256.0234,486.3916v3.89a10.9879,10.9879,0,0,1-.3222,2.875,5.9278,5.9278,0,0,1,4.3359-1.9824,3.9243,3.9243,0,0,1,3.4317,1.4746q1.0532,1.4738,1.0537,4.8682a7.83,7.83,0,0,1-1.2891,4.832q-1.2891,1.6861-4.6826,1.6846a25.2826,25.2826,0,0,1-3.333-.2471,11.4063,11.4063,0,0,1-2.8867-.6943v-16.7Zm-.0254,8.7471v5.9463a9.7764,9.7764,0,0,0,2.4786.2226,2.0411,2.0411,0,0,0,1.7714-.8418,5.8827,5.8827,0,0,0,.5079-2.9238,5.9921,5.9921,0,0,0-.4209-2.7383,1.8916,1.8916,0,0,0-1.76-.706A5.04,5.04,0,0,0,255.998,495.1387Z"/>
    <path d="M275.82,491.1738l-.3721,3.3946h-.9912a13.3586,13.3586,0,0,0-3.7412.8427v8.3252h-3.667V491.5205h2.85l.3223,1.7842a7.7,7.7,0,0,1,4.9551-2.1309Z"/>
    <path d="M283.18,491.1738q3.4189,0,4.8437,1.4746t1.4248,4.9922q0,3.5186-1.4248,4.9688-1.4253,1.4487-4.8437,1.4492-3.4454,0-4.8692-1.4492t-1.4248-4.9688q0-3.5435,1.4248-5.0049T283.18,491.1738Zm0,2.75a2.1989,2.1989,0,0,0-1.958.7432,5.9789,5.9789,0,0,0-.4951,2.9736,5.8318,5.8318,0,0,0,.4951,2.9239,2.1966,2.1966,0,0,0,1.958.7431,2.1693,2.1693,0,0,0,1.92-.7431,5.7022,5.7022,0,0,0,.5078-2.9239,5.9841,5.9841,0,0,0-.4951-2.9609A2.1506,2.1506,0,0,0,283.18,493.9238Z"/>
    <path d="M303.5469,491.5205v12.2158h-2.8985l-.2724-1.6845a8.13,8.13,0,0,1-5.0557,2.0068q-3.4438,0-3.4433-3.3945v-9.1436h3.6669v8.0283a1.5642,1.5642,0,0,0,.2725,1.1153,1.3759,1.3759,0,0,0,1.041.3222,7.4859,7.4859,0,0,0,3.0479-1.0166v-8.4492Z"/>
    <path d="M311.3271,493.9736v5.7735a1.2721,1.2721,0,0,0,.2979.9658,1.5371,1.5371,0,0,0,1.041.2734h1.5606l.3964,2.5518a10.4788,10.4788,0,0,1-3.4443.4951,3.46,3.46,0,0,1-2.5771-.9287,3.5252,3.5252,0,0,1-.9161-2.5889v-6.542h-2.1562v-2.3291l2.1562-.124v-3.4189h3.6416v3.4189h3.3946v2.4531Z"/>
    <path d="M317.8438,486.1191H319.48a.942.942,0,0,1,1.0654,1.0655v1.3379a.9419.9419,0,0,1-1.0654,1.0654h-1.6357a.942.942,0,0,1-1.0655-1.0654v-1.3379A.942.942,0,0,1,317.8438,486.1191Zm2.6513,17.6172h-3.6426V491.5205h3.6426Z"/>
    <path d="M326.5664,491.5205l.2725,1.8086a8.337,8.337,0,0,1,5.2275-2.1553,3.47,3.47,0,0,1,2.54.8672,3.3972,3.3972,0,0,1,.88,2.5274v9.1679h-3.6425V495.708a1.8072,1.8072,0,0,0-.26-1.1269,1.1632,1.1632,0,0,0-.93-.3106,8.5645,8.5645,0,0,0-3.3945,1.1152v8.3506h-3.667V491.5205Z"/>
    <path d="M346.2148,498.8555h-4.4111a2.5349,2.5349,0,0,0,.8057,1.7959,3.6537,3.6537,0,0,0,2.0937.458,44.1976,44.1976,0,0,0,4.56-.2725l.3467,2.28a12.5561,12.5561,0,0,1-5.3272.916q-3.4452,0-4.9062-1.4863t-1.4619-4.9063q0-3.5917,1.4248-5.03,1.4238-1.4357,4.7949-1.4366a7.2763,7.2763,0,0,1,4.41,1.0528,3.8623,3.8623,0,0,1,1.3877,3.2089,3.4245,3.4245,0,0,1-.88,2.5645A3.9638,3.9638,0,0,1,346.2148,498.8555Zm-4.4853-2.2061h3.47a1.0608,1.0608,0,0,0,.9043-.3223,1.5855,1.5855,0,0,0,.2354-.9414,1.4118,1.4118,0,0,0-.4463-1.2011,2.8663,2.8663,0,0,0-1.6358-.335,2.6089,2.6089,0,0,0-1.9326.5576A3.6739,3.6739,0,0,0,341.73,496.6494Z"/>
    <path d="M357.5879,489.7861l-.1484-2.85a28.2987,28.2987,0,0,1,5.749-.5947,8.6448,8.6448,0,0,1,4.2988.8428,3.32,3.32,0,0,1,1.4248,3.122,6.2734,6.2734,0,0,1-.5576,2.7129,12.5782,12.5782,0,0,1-2.2178,2.9366l-4.3857,4.56a14.5114,14.5114,0,0,1,2.5273-.1738h5.1289v3.3945H357.291V501.63a2.1312,2.1312,0,0,1,.5449-1.5361l4.1875-4.51q3.0719-3.1963,3.0479-4.8809a.9291.9291,0,0,0-.5449-.93,5.2953,5.2953,0,0,0-1.7842-.21Q360.1157,489.5635,357.5879,489.7861Z"/>
  </g>
  <g>
    <path d="M152.5332,570.7773l-.3477-2.4775a35.8553,35.8553,0,0,1,6.3682-.5947,5.4979,5.4979,0,0,1,3.6426,1.0029,4.4081,4.4081,0,0,1,1.165,3.4815v8.0781h-2.8994l-.3721-1.8584a5.6977,5.6977,0,0,1-4.51,2.1553,4.339,4.339,0,0,1-2.874-.9288,3.1853,3.1853,0,0,1-1.1153-2.5888v-1.2393a2.7932,2.7932,0,0,1,.9912-2.2793,4.2,4.2,0,0,1,2.751-.8183h4.36v-.545a1.6059,1.6059,0,0,0-.4336-1.2636,2.7,2.7,0,0,0-1.5733-.3223Q155.6547,570.5791,152.5332,570.7773Zm2.6758,5.3028v.4707q0,1.2642,1.4375,1.2637a5.0567,5.0567,0,0,0,3.0469-1.1895v-1.71h-3.295A1.0544,1.0544,0,0,0,155.209,576.08Z"/>
    <path d="M176.27,577.3682l.3223,2.3789a11.9266,11.9266,0,0,1-4.7324.8174q-3.3706,0-4.7451-1.4493t-1.375-4.9677q0-3.5435,1.3877-4.9932t4.7822-1.4492a11.2454,11.2454,0,0,1,4.51.7676l-.3964,2.28q-2.6763-.05-3.4942-.05a2.9968,2.9968,0,0,0-2.3164.7188,6.1948,6.1948,0,0,0,0,5.4511,2.9968,2.9968,0,0,0,2.3164.7188A27.1266,27.1266,0,0,0,176.27,577.3682Z"/>
    <path d="M183.5791,570.5049v5.7734a1.2716,1.2716,0,0,0,.2979.9658,1.5366,1.5366,0,0,0,1.041.2735h1.56l.3965,2.5517a10.4786,10.4786,0,0,1-3.4443.4952,3.4592,3.4592,0,0,1-2.5772-.9288,3.5254,3.5254,0,0,1-.916-2.5888v-6.542h-2.1563v-2.3291l2.1563-.124v-3.419h3.6416v3.419h3.3945v2.4531Z"/>
    <path d="M190.0957,562.65h1.6357a.942.942,0,0,1,1.0655,1.0654v1.3379a.942.942,0,0,1-1.0655,1.0654h-1.6357a.9419.9419,0,0,1-1.0654-1.0654v-1.3379A.9419.9419,0,0,1,190.0957,562.65Zm2.6514,17.6172h-3.6426V568.0518h3.6426Z"/>
    <path d="M208.085,568.0518,204.0713,579.4a1.1621,1.1621,0,0,1-1.19.8672H199.71a1.1621,1.1621,0,0,1-1.19-.8672l-4.0137-11.3486h3.89l2.2051,7.6562q.2724,1.0166.52,2.1807h.3222l.57-2.1807,2.2051-7.6562Z"/>
    <path d="M217.3525,575.3867h-4.4111a2.5347,2.5347,0,0,0,.8057,1.7959,3.6529,3.6529,0,0,0,2.0937.458,44.1948,44.1948,0,0,0,4.56-.2724l.3467,2.28a12.5544,12.5544,0,0,1-5.3272.9161q-3.4454,0-4.9062-1.4864t-1.4619-4.9062q0-3.5919,1.4248-5.03,1.4238-1.4355,4.7949-1.4365a7.2771,7.2771,0,0,1,4.41,1.0527,3.8626,3.8626,0,0,1,1.3877,3.209,3.4244,3.4244,0,0,1-.88,2.5644A3.9634,3.9634,0,0,1,217.3525,575.3867Zm-4.4853-2.206h3.47a1.0611,1.0611,0,0,0,.9043-.3223,1.5857,1.5857,0,0,0,.2354-.9414,1.4121,1.4121,0,0,0-.4463-1.2012,2.8672,2.8672,0,0,0-1.6358-.3349,2.6084,2.6084,0,0,0-1.9326.5576A3.6734,3.6734,0,0,0,212.8672,573.1807Z"/>
    <path d="M234.25,575.7334l-3.0469-.8184a4.376,4.376,0,0,1-2.3291-1.35,3.85,3.85,0,0,1-.6445-2.3672,3.0137,3.0137,0,0,1,1.1767-2.7,7.545,7.545,0,0,1,4.0264-.7929,35.7272,35.7272,0,0,1,5.6494.4707l-.248,2.3535q-3.1216-.0483-4.707-.0488-.8687,0-1.2022.0117a3.7364,3.7364,0,0,0-.6689.0869c-.2227.05-.3594.1279-.4092.2354a1.22,1.22,0,0,0-.0742.4834,1.6892,1.6892,0,0,0,.0127.2226.4833.4833,0,0,0,.0615.1865,1.49,1.49,0,0,0,.0869.1358.4972.4972,0,0,0,.1367.1113.9815.9815,0,0,0,.1611.0869c.0411.0166.1153.0459.2227.0869s.1895.07.248.0869.1651.0459.3213.087.2774.07.3594.0859l3.1221.8428a4.8823,4.8823,0,0,1,2.3291,1.2509,3.3914,3.3914,0,0,1,.6943,2.3174,3.2016,3.2016,0,0,1-1.2637,2.961,8.7513,8.7513,0,0,1-4.3359.78,33.133,33.133,0,0,1-5.4766-.4209l.2237-2.3789q.8905.05,4.2363.05a11.7933,11.7933,0,0,0,2.49-.1611.718.718,0,0,0,.5831-.7559,1.8806,1.8806,0,0,0-.0127-.2226.5083.5083,0,0,0-.0625-.1865.65.65,0,0,0-.0987-.1358.7439.7439,0,0,0-.1611-.1113c-.0742-.042-.1328-.0752-.1738-.1a1.5089,1.5089,0,0,0-.2354-.0986,2.8584,2.8584,0,0,0-.2724-.087c-.0665-.0166-.1817-.0459-.3467-.0869A3.0587,3.0587,0,0,1,234.25,575.7334Z"/>
    <path d="M253.4785,568.0518v12.2158H250.58l-.2725-1.6846a8.1294,8.1294,0,0,1-5.0556,2.0068q-3.4439,0-3.4434-3.3945v-9.1435h3.667V576.08a1.5638,1.5638,0,0,0,.2724,1.1152,1.3759,1.3759,0,0,0,1.0411.3223,7.4876,7.4876,0,0,0,3.0478-1.0166v-8.4492Z"/>
    <path d="M260.1445,562.9229v3.89a10.989,10.989,0,0,1-.3222,2.875,5.9274,5.9274,0,0,1,4.3359-1.9824A3.924,3.924,0,0,1,267.59,569.18q1.0533,1.4736,1.0538,4.8682a7.83,7.83,0,0,1-1.2891,4.832q-1.2891,1.686-4.6826,1.6846a25.3,25.3,0,0,1-3.333-.2471,11.4078,11.4078,0,0,1-2.8868-.6944v-16.7Zm-.0254,8.747v5.9463a9.7765,9.7765,0,0,0,2.4786.2227,2.0413,2.0413,0,0,0,1.7714-.8418,5.8831,5.8831,0,0,0,.5079-2.9239,5.9919,5.9919,0,0,0-.4209-2.7382,1.8917,1.8917,0,0,0-1.76-.7061A5.0412,5.0412,0,0,0,260.1191,571.67Z"/>
    <path d="M279.9414,567.7051l-.3721,3.3945h-.9912a13.36,13.36,0,0,0-3.7412.8428v8.3252H271.17V568.0518h2.85l.3223,1.7841a7.7,7.7,0,0,1,4.9551-2.1308Z"/>
    <path d="M287.3008,567.7051q3.419,0,4.8437,1.4746t1.4248,4.9922q0,3.5186-1.4248,4.9687t-4.8437,1.4492q-3.4453,0-4.8692-1.4492t-1.4248-4.9687q0-3.5435,1.4248-5.0049T287.3008,567.7051Zm0,2.75a2.1989,2.1989,0,0,0-1.958.7431,5.9791,5.9791,0,0,0-.4951,2.9737,5.8311,5.8311,0,0,0,.4951,2.9238,2.1964,2.1964,0,0,0,1.958.7432,2.1691,2.1691,0,0,0,1.92-.7432,5.7015,5.7015,0,0,0,.5078-2.9238,5.9843,5.9843,0,0,0-.4951-2.961A2.1505,2.1505,0,0,0,287.3008,570.4551Z"/>
    <path d="M307.668,568.0518v12.2158H304.77l-.2724-1.6846a8.13,8.13,0,0,1-5.0557,2.0068q-3.4438,0-3.4434-3.3945v-9.1435h3.667V576.08a1.5638,1.5638,0,0,0,.2725,1.1152,1.3755,1.3755,0,0,0,1.041.3223,7.4874,7.4874,0,0,0,3.0479-1.0166v-8.4492Z"/>
    <path d="M315.4482,570.5049v5.7734a1.272,1.272,0,0,0,.2979.9658,1.5366,1.5366,0,0,0,1.041.2735h1.5606l.3964,2.5517a10.4786,10.4786,0,0,1-3.4443.4952,3.4591,3.4591,0,0,1-2.5771-.9288,3.5251,3.5251,0,0,1-.9161-2.5888v-6.542H309.65v-2.3291l2.1562-.124v-3.419h3.6416v3.419h3.3946v2.4531Z"/>
    <path d="M321.9648,562.65h1.6358a.942.942,0,0,1,1.0654,1.0654v1.3379a.9419.9419,0,0,1-1.0654,1.0654h-1.6358a.9419.9419,0,0,1-1.0654-1.0654v-1.3379A.942.942,0,0,1,321.9648,562.65Zm2.6514,17.6172h-3.6426V568.0518h3.6426Z"/>
    <path d="M330.6875,568.0518l.2725,1.8086a8.3364,8.3364,0,0,1,5.2275-2.1553,3.47,3.47,0,0,1,2.54.8672,3.3971,3.3971,0,0,1,.88,2.5273v9.168h-3.6426v-8.0283a1.8077,1.8077,0,0,0-.26-1.127,1.1637,1.1637,0,0,0-.93-.3105,8.5628,8.5628,0,0,0-3.3945,1.1152v8.3506h-3.667V568.0518Z"/>
    <path d="M350.3359,575.3867h-4.4111a2.5347,2.5347,0,0,0,.8057,1.7959,3.6529,3.6529,0,0,0,2.0937.458,44.1948,44.1948,0,0,0,4.56-.2724l.3467,2.28a12.5544,12.5544,0,0,1-5.3272.9161q-3.4454,0-4.9062-1.4864t-1.4619-4.9062q0-3.5919,1.4248-5.03,1.4238-1.4355,4.7949-1.4365a7.2771,7.2771,0,0,1,4.41,1.0527,3.8626,3.8626,0,0,1,1.3877,3.209,3.4244,3.4244,0,0,1-.88,2.5644A3.9634,3.9634,0,0,1,350.3359,575.3867Zm-4.4853-2.206h3.47a1.0611,1.0611,0,0,0,.9043-.3223,1.5857,1.5857,0,0,0,.2354-.9414,1.4121,1.4121,0,0,0-.4463-1.2012,2.8672,2.8672,0,0,0-1.6358-.3349,2.6084,2.6084,0,0,0-1.9326.5576A3.6734,3.6734,0,0,0,345.8506,573.1807Z"/>
    <path d="M368.6221,580.2676h-3.7657v-12.042a9.9068,9.9068,0,0,1,.1485-1.8584l-3.9893,1.04-.4463-2.5273,4.2871-1.709h3.7657Z"/>
  </g>
  <g>
    <path d="M518.1211,402.2441h-4.8828v13.4151h-3.626V402.2441H504.73v-2.9394h13.3916Z"/>
    <path d="M523.1221,403.6426q3.27,0,4.6328,1.41t1.3633,4.7754q0,3.3663-1.3633,4.753t-4.6328,1.3867q-3.296,0-4.6582-1.3867t-1.3623-4.753q0-3.3882,1.3623-4.7871T523.1221,403.6426Zm0,2.6308a2.105,2.105,0,0,0-1.8731.711,5.7055,5.7055,0,0,0-.4736,2.8437,5.5716,5.5716,0,0,0,.4736,2.7969,2.1027,2.1027,0,0,0,1.8731.7109,2.0725,2.0725,0,0,0,1.8359-.7109,5.4533,5.4533,0,0,0,.4863-2.7969,5.73,5.73,0,0,0-.4736-2.832A2.0583,2.0583,0,0,0,523.1221,406.2734Z"/>
    <path d="M534.3564,403.9746l.2608,1.7061a5.446,5.446,0,0,1,2.0264-1.4453,6.4339,6.4339,0,0,1,2.6191-.5694q4.0283,0,4.0293,6.2578,0,3.3648-1.0781,4.7041a4.08,4.08,0,0,1-3.378,1.34,6.415,6.415,0,0,1-3.9111-1.1377,18.7961,18.7961,0,0,1,.0713,2.5117v2.82h-3.4834V403.9746Zm.64,3.5547v5.3564a12.3111,12.3111,0,0,0,2.6553.4747,1.7772,1.7772,0,0,0,1.6-.6641,5.7241,5.7241,0,0,0,.4385-2.7725,6.4456,6.4456,0,0,0-.4034-2.7851,1.4865,1.4865,0,0,0-1.4218-.7227A5.6161,5.6161,0,0,0,534.9961,407.5293Z"/>
    <path d="M556.3984,403.6426q3.27,0,4.6328,1.41t1.3633,4.7754q0,3.3663-1.3633,4.753t-4.6328,1.3867q-3.2958,0-4.6582-1.3867t-1.3623-4.753q0-3.3882,1.3623-4.7871Q553.104,403.6421,556.3984,403.6426Zm0,2.6308a2.1048,2.1048,0,0,0-1.873.711,5.7055,5.7055,0,0,0-.4736,2.8437,5.5716,5.5716,0,0,0,.4736,2.7969,2.1025,2.1025,0,0,0,1.873.7109,2.0728,2.0728,0,0,0,1.836-.7109,5.4533,5.4533,0,0,0,.4863-2.7969,5.73,5.73,0,0,0-.4736-2.832A2.0584,2.0584,0,0,0,556.3984,406.2734Z"/>
    <path d="M573.084,401.1533H570.88a1.75,1.75,0,0,0-1.2207.3321,1.62,1.62,0,0,0-.3438,1.1855v1.3037h3.2227V406.32h-3.2227v9.3389h-3.5322V406.32h-2.0381v-2.2275l2.0381-.1182v-1.7783q0-3.6021,3.84-3.6025a22.7329,22.7329,0,0,1,3.793.2373Z"/>
    <path d="M584.2,411.3213l-2.916-.7813a4.1963,4.1963,0,0,1-2.2276-1.292,3.6848,3.6848,0,0,1-.6162-2.2636,2.8828,2.8828,0,0,1,1.126-2.583,7.21,7.21,0,0,1,3.8516-.7588,34.0462,34.0462,0,0,1,5.4033.45l-.2363,2.2519q-2.9868-.0483-4.5039-.0478-.8292,0-1.1495.0117a3.6781,3.6781,0,0,0-.64.083c-.2129.0479-.3438.123-.3906.2256a1.1419,1.1419,0,0,0-.0713.4619,1.5844,1.5844,0,0,0,.0117.2139.4659.4659,0,0,0,.06.1777,1.3172,1.3172,0,0,0,.082.13.4815.4815,0,0,0,.1309.1064.9185.9185,0,0,0,.1543.083c.039.0157.11.044.2128.083s.1817.0674.2374.0831.1572.0439.3076.083.2646.0673.3437.083l2.9863.8056a4.6694,4.6694,0,0,1,2.2286,1.1973,3.2445,3.2445,0,0,1,.663,2.2158,3.0613,3.0613,0,0,1-1.208,2.8321,8.3735,8.3735,0,0,1-4.1484.747,31.6508,31.6508,0,0,1-5.2383-.4033l.2139-2.2754q.8524.0483,4.0527.0479a11.225,11.225,0,0,0,2.3819-.1543.6871.6871,0,0,0,.5576-.7227,1.7381,1.7381,0,0,0-.0117-.2129.5032.5032,0,0,0-.06-.1787.6924.6924,0,0,0-.0947-.13.7321.7321,0,0,0-.1543-.1064c-.0713-.0391-.127-.0713-.1661-.0947a1.32,1.32,0,0,0-.2246-.0948c-.1113-.04-.1982-.0674-.2607-.083s-.1748-.0439-.332-.083A2.7591,2.7591,0,0,1,584.2,411.3213Z"/>
    <path d="M596.05,406.32v5.5225a1.22,1.22,0,0,0,.2852.9248,1.4746,1.4746,0,0,0,.9951.2607h1.4931l.3789,2.4414a10.0276,10.0276,0,0,1-3.2939.4737,3.3044,3.3044,0,0,1-2.4648-.8887,3.3728,3.3728,0,0,1-.877-2.4766V406.32h-2.0625v-2.2275l2.0625-.1182v-3.2715H596.05v3.2715h3.2471V406.32Z"/>
    <path d="M601.55,406.5811l-.332-2.37a34.3205,34.3205,0,0,1,6.0918-.5683,5.262,5.262,0,0,1,3.4843.96,4.2156,4.2156,0,0,1,1.1133,3.33v7.7266h-2.7724l-.3555-1.7774a5.4543,5.4543,0,0,1-4.3145,2.0616,4.1478,4.1478,0,0,1-2.749-.8887,3.0477,3.0477,0,0,1-1.0664-2.4766v-1.1855a2.67,2.67,0,0,1,.9483-2.1807,4.0173,4.0173,0,0,1,2.6308-.7822h4.1709v-.5205a1.5383,1.5383,0,0,0-.415-1.209,2.5851,2.5851,0,0,0-1.5049-.3086Q604.5356,406.3916,601.55,406.5811Zm2.56,5.0722v.45q0,1.21,1.375,1.209a4.8346,4.8346,0,0,0,2.915-1.1377V410.54h-3.1523A1.0081,1.0081,0,0,0,604.1094,411.6533Z"/>
    <path d="M624.2559,412.8857l.3076,2.2754a11.4054,11.4054,0,0,1-4.5264.7823q-3.2241,0-4.5391-1.3868t-1.3154-4.7519q0-3.3882,1.3272-4.7754t4.5742-1.3867a10.7574,10.7574,0,0,1,4.3135.7344l-.3789,2.1806q-2.5591-.0468-3.3418-.0469a2.8678,2.8678,0,0,0-2.2159.6866,5.9255,5.9255,0,0,0,0,5.2148,2.8677,2.8677,0,0,0,2.2159.6875A26.0151,26.0151,0,0,0,624.2559,412.8857Z"/>
    <path d="M631.1514,410.2314h-1.1133a11.9006,11.9006,0,0,1,.166,1.754v3.6738h-3.5078V399.0684h3.5078v6.85a12.7326,12.7326,0,0,1-.166,2.1328h1.09l2.8916-4.0762h3.9346l-3.0342,4.0527a3.4859,3.4859,0,0,1-1.09,1.1143v.0469a3.79,3.79,0,0,1,1.09,1.2558l3.4375,5.2149h-3.9345Z"/>
    <path d="M508.5928,432.417l.2607,1.706a5.4488,5.4488,0,0,1,2.0264-1.4453,6.4357,6.4357,0,0,1,2.6191-.5693q4.0284,0,4.0293,6.2578,0,3.3648-1.0781,4.7041a4.08,4.08,0,0,1-3.3779,1.34,6.4153,6.4153,0,0,1-3.9112-1.1377,18.7789,18.7789,0,0,1,.0713,2.5117v2.82H505.749V432.417Zm.64,3.5547v5.3564a12.3092,12.3092,0,0,0,2.6553.4746,1.7771,1.7771,0,0,0,1.6-.664,5.7241,5.7241,0,0,0,.4385-2.7725,6.4476,6.4476,0,0,0-.4033-2.7851,1.4867,1.4867,0,0,0-1.4219-.7227A5.6164,5.6164,0,0,0,509.2324,435.9717Z"/>
    <path d="M525.4922,432.085q3.27,0,4.6328,1.41t1.3633,4.7754q0,3.3661-1.3633,4.7529t-4.6328,1.3868q-3.296,0-4.6582-1.3868t-1.3623-4.7529q0-3.3882,1.3623-4.7871Q522.1978,432.0845,525.4922,432.085Zm0,2.6308a2.105,2.105,0,0,0-1.8731.711,5.7055,5.7055,0,0,0-.4736,2.8437,5.5719,5.5719,0,0,0,.4736,2.7969,2.1027,2.1027,0,0,0,1.8731.7109,2.0725,2.0725,0,0,0,1.8359-.7109,5.4533,5.4533,0,0,0,.4864-2.7969,5.7292,5.7292,0,0,0-.4737-2.832A2.0583,2.0583,0,0,0,525.4922,434.7158Z"/>
    <path d="M534.9248,427.25h1.5645a.9009.9009,0,0,1,1.0195,1.0186v1.28a.9012.9012,0,0,1-1.0195,1.02h-1.5645a.9009.9009,0,0,1-1.0186-1.02v-1.28A.9006.9006,0,0,1,534.9248,427.25Zm2.5361,16.8516h-3.4834V432.417h3.4834Z"/>
    <path d="M543.2676,432.417l.2607,1.73a7.977,7.977,0,0,1,5.001-2.0615,3.32,3.32,0,0,1,2.43.8291,3.251,3.251,0,0,1,.8408,2.4179v8.77h-3.4834v-7.68a1.7258,1.7258,0,0,0-.249-1.0781,1.1151,1.1151,0,0,0-.8887-.2959,8.1859,8.1859,0,0,0-3.2471,1.0664v7.9873h-3.5078V432.417Z"/>
    <path d="M559.1709,434.7627v5.5225a1.22,1.22,0,0,0,.2852.9248,1.4746,1.4746,0,0,0,.9951.2607h1.4931l.3789,2.4414a10.03,10.03,0,0,1-3.2939.4736,3.3048,3.3048,0,0,1-2.4648-.8886,3.3728,3.3728,0,0,1-.877-2.4766v-6.2578H553.625v-2.2275l2.0625-.1182v-3.2715h3.4834v3.2715h3.2471v2.3457Z"/>
    <path d="M571.8037,439.4326H567.585a2.4177,2.4177,0,0,0,.77,1.7178,3.49,3.49,0,0,0,2.0029.4385,42.2429,42.2429,0,0,0,4.3613-.2608l.3311,2.1807a12.0028,12.0028,0,0,1-5.0957.8769q-3.2945,0-4.6924-1.4218t-1.3984-4.6934q0-3.435,1.3623-4.8105t4.5869-1.375a6.9649,6.9649,0,0,1,4.2187,1.0068,3.6937,3.6937,0,0,1,1.3272,3.0693,3.2714,3.2714,0,0,1-.8418,2.4532A3.7887,3.7887,0,0,1,571.8037,439.4326Zm-4.29-2.1094h3.3183a1.0128,1.0128,0,0,0,.8653-.3086,1.5117,1.5117,0,0,0,.2256-.9,1.3537,1.3537,0,0,0-.4268-1.1495,2.7424,2.7424,0,0,0-1.5645-.32,2.4966,2.4966,0,0,0-1.8486.5332A3.5117,3.5117,0,0,0,567.5137,437.3232Z"/>
    <path d="M586.0244,432.085l-.3555,3.247h-.9482a12.77,12.77,0,0,0-3.5781.8057v7.9639h-3.5078V432.417H580.36l.3076,1.706a7.3685,7.3685,0,0,1,4.74-2.038Z"/>
  </g>
</svg>
